<svg width="121" height="51" viewBox="0 0 121 51" fill="none" xmlns="http://www.w3.org/2000/svg">
<path d="M12.9796 1.81818H19.2183V19.9205C19.2097 21.6165 18.8049 23.0994 18.0038 24.3693C17.2026 25.6307 16.0947 26.6108 14.6799 27.3097C13.2736 28.0085 11.6458 28.358 9.79638 28.358C8.16001 28.358 6.6728 28.0724 5.33473 27.5014C4.00518 26.9304 2.9441 26.044 2.15149 24.8423C1.3674 23.6406 0.979615 22.1023 0.988138 20.2273H7.29069C7.31626 20.9006 7.4441 21.4759 7.67422 21.9531C7.91285 22.4219 8.24098 22.7756 8.65859 23.0142C9.07621 23.2528 9.57479 23.3722 10.1543 23.3722C10.7594 23.3722 11.2708 23.2443 11.6884 22.9886C12.106 22.7244 12.4214 22.3366 12.6344 21.8253C12.856 21.3139 12.9711 20.679 12.9796 19.9205V1.81818ZM26.9264 28.3324C25.6736 28.3324 24.5614 28.1236 23.5898 27.706C22.6267 27.2798 21.8639 26.6406 21.3014 25.7884C20.7474 24.9276 20.4705 23.8494 20.4705 22.554C20.4705 21.4631 20.6622 20.5426 21.0457 19.7926C21.4293 19.0426 21.9577 18.4332 22.631 17.9645C23.3043 17.4957 24.0798 17.142 24.9577 16.9034C25.8355 16.6562 26.773 16.4901 27.7702 16.4048C28.8866 16.3026 29.7858 16.196 30.4676 16.0852C31.1494 15.9659 31.6437 15.7997 31.9506 15.5866C32.2659 15.3651 32.4236 15.054 32.4236 14.6534V14.5895C32.4236 13.9332 32.1977 13.4261 31.746 13.0682C31.2943 12.7102 30.6849 12.5312 29.9179 12.5312C29.0912 12.5312 28.4264 12.7102 27.9236 13.0682C27.4207 13.4261 27.1011 13.9205 26.9648 14.5511L21.1991 14.3466C21.3696 13.1534 21.8085 12.0881 22.5159 11.1506C23.2318 10.2045 24.2119 9.46307 25.4562 8.92614C26.7091 8.38068 28.2134 8.10795 29.969 8.10795C31.2219 8.10795 32.3767 8.2571 33.4335 8.5554C34.4903 8.84517 35.4108 9.27131 36.1949 9.83381C36.979 10.3878 37.5841 11.0696 38.0102 11.8793C38.4449 12.6889 38.6622 13.6136 38.6622 14.6534V28H32.7815V25.2642H32.6281C32.2787 25.929 31.8312 26.4915 31.2858 26.9517C30.7489 27.4119 30.1139 27.7571 29.381 27.9872C28.6565 28.2173 27.8384 28.3324 26.9264 28.3324ZM28.8568 24.2415C29.5301 24.2415 30.1352 24.1051 30.6722 23.8324C31.2176 23.5597 31.6523 23.1847 31.9761 22.7074C32.3 22.2216 32.4619 21.6591 32.4619 21.0199V19.1534C32.283 19.2472 32.0656 19.3324 31.8099 19.4091C31.5628 19.4858 31.2901 19.5582 30.9918 19.6264C30.6935 19.6946 30.3866 19.7543 30.0713 19.8054C29.756 19.8565 29.4534 19.9034 29.1636 19.946C28.5756 20.0398 28.0727 20.1847 27.6551 20.3807C27.246 20.5767 26.9307 20.8324 26.7091 21.1477C26.496 21.4545 26.3895 21.821 26.3895 22.2472C26.3895 22.8949 26.6196 23.3892 27.0798 23.7301C27.5486 24.071 28.1409 24.2415 28.8568 24.2415ZM40.6847 28V8.36364H46.7571V11.9432H46.9616C47.3196 10.6477 47.9034 9.68466 48.7131 9.05398C49.5227 8.41477 50.4645 8.09517 51.5384 8.09517C51.8281 8.09517 52.1264 8.11648 52.4332 8.15909C52.7401 8.19318 53.0256 8.24858 53.2898 8.32528V13.7585C52.9915 13.6562 52.5994 13.5753 52.1136 13.5156C51.6364 13.456 51.2102 13.4261 50.8352 13.4261C50.0938 13.4261 49.4247 13.5923 48.8281 13.9247C48.2401 14.2486 47.7756 14.7045 47.4347 15.2926C47.1023 15.8722 46.9361 16.554 46.9361 17.3381V28H40.6847ZM54.037 28V8.36364H60.1094V11.9432H60.314C60.6719 10.6477 61.2558 9.68466 62.0654 9.05398C62.8751 8.41477 63.8168 8.09517 64.8907 8.09517C65.1805 8.09517 65.4788 8.11648 65.7856 8.15909C66.0924 8.19318 66.3779 8.24858 66.6421 8.32528V13.7585C66.3438 13.6562 65.9518 13.5753 65.466 13.5156C64.9887 13.456 64.5626 13.4261 64.1876 13.4261C63.4461 13.4261 62.7771 13.5923 62.1805 13.9247C61.5924 14.2486 61.1279 14.7045 60.787 15.2926C60.4546 15.8722 60.2884 16.554 60.2884 17.3381V28H54.037ZM67.3893 28V8.36364H73.6408V28H67.3893ZM70.5215 6.07528C69.6436 6.07528 68.8893 5.78551 68.2587 5.20597C67.628 4.6179 67.3126 3.91051 67.3126 3.08381C67.3126 2.26562 67.628 1.56676 68.2587 0.987216C68.8893 0.399147 69.6436 0.105112 70.5215 0.105112C71.4078 0.105112 72.1621 0.399147 72.7842 0.987216C73.4149 1.56676 73.7303 2.26562 73.7303 3.08381C73.7303 3.91051 73.4149 4.6179 72.7842 5.20597C72.1621 5.78551 71.4078 6.07528 70.5215 6.07528Z" fill="white"/>
<path d="M49.3666 49H40.2267V24.2727H49.3546C51.874 24.2727 54.0432 24.7678 55.8624 25.7578C57.6896 26.7398 59.0982 28.1565 60.0882 30.0078C61.0783 31.8511 61.5733 34.0566 61.5733 36.6243C61.5733 39.2 61.0783 41.4136 60.0882 43.2649C59.1062 45.1162 57.7016 46.5369 55.8744 47.527C54.0473 48.509 51.878 49 49.3666 49ZM46.2033 43.9048H49.1372C50.5217 43.9048 51.6929 43.6714 52.6507 43.2045C53.6166 42.7296 54.3451 41.9609 54.8361 40.8984C55.3352 39.8279 55.5847 38.4032 55.5847 36.6243C55.5847 34.8454 55.3352 33.4287 54.8361 32.3743C54.337 31.3118 53.6005 30.5471 52.6266 30.0803C51.6607 29.6053 50.4694 29.3679 49.0527 29.3679H46.2033V43.9048ZM63.2627 49V30.4545H68.9977V33.8352H69.1909C69.529 32.6117 70.0804 31.7022 70.845 31.1065C71.6097 30.5028 72.4992 30.201 73.5134 30.201C73.787 30.201 74.0688 30.2211 74.3585 30.2614C74.6483 30.2936 74.918 30.3459 75.1675 30.4183V35.5497C74.8858 35.4531 74.5155 35.3767 74.0567 35.3203C73.6059 35.264 73.2035 35.2358 72.8493 35.2358C72.149 35.2358 71.5172 35.3928 70.9537 35.7067C70.3983 36.0125 69.9596 36.4432 69.6377 36.9986C69.3237 37.5459 69.1668 38.1899 69.1668 38.9304V49H63.2627ZM80.3039 49.3139C79.1207 49.3139 78.0703 49.1167 77.1526 48.7223C76.2431 48.3198 75.5227 47.7161 74.9914 46.9112C74.4682 46.0982 74.2066 45.08 74.2066 43.8565C74.2066 42.8262 74.3877 41.9569 74.7499 41.2486C75.1122 40.5402 75.6112 39.9647 76.2471 39.522C76.883 39.0793 77.6155 38.7453 78.4446 38.5199C79.2736 38.2865 80.159 38.1295 81.1008 38.049C82.1553 37.9524 83.0044 37.8518 83.6484 37.7472C84.2923 37.6345 84.7592 37.4775 85.049 37.2763C85.3468 37.067 85.4957 36.7732 85.4957 36.3949V36.3345C85.4957 35.7147 85.2824 35.2358 84.8558 34.8977C84.4292 34.5597 83.8536 34.3906 83.1292 34.3906C82.3484 34.3906 81.7206 34.5597 81.2457 34.8977C80.7708 35.2358 80.4689 35.7027 80.3401 36.2983L74.8948 36.1051C75.0558 34.9782 75.4704 33.9721 76.1384 33.0866C76.8146 32.1932 77.7402 31.4929 78.9154 30.9858C80.0987 30.4706 81.5194 30.2131 83.1775 30.2131C84.3607 30.2131 85.4514 30.3539 86.4495 30.6357C87.4476 30.9093 88.3169 31.3118 89.0575 31.843C89.798 32.3662 90.3695 33.0102 90.772 33.7749C91.1825 34.5395 91.3877 35.4129 91.3877 36.3949V49H85.8338V46.4162H85.6889C85.3589 47.044 84.9363 47.5753 84.4211 48.0099C83.914 48.4446 83.3143 48.7706 82.6221 48.9879C81.9379 49.2053 81.1652 49.3139 80.3039 49.3139ZM82.1271 45.4503C82.763 45.4503 83.3345 45.3215 83.8416 45.0639C84.3567 44.8063 84.7672 44.4522 85.0731 44.0014C85.379 43.5426 85.5319 43.0114 85.5319 42.4077V40.6449C85.3629 40.7334 85.1576 40.8139 84.9161 40.8864C84.6827 40.9588 84.4251 41.0272 84.1434 41.0916C83.8617 41.156 83.5719 41.2124 83.2741 41.2607C82.9763 41.3089 82.6905 41.3532 82.4169 41.3935C81.8615 41.482 81.3865 41.6188 80.9921 41.804C80.6058 41.9891 80.308 42.2306 80.0987 42.5284C79.8974 42.8182 79.7968 43.1643 79.7968 43.5668C79.7968 44.1785 80.0142 44.6454 80.4488 44.9673C80.8915 45.2893 81.4509 45.4503 82.1271 45.4503ZM96.663 49L91.8335 30.4545H97.7617L100.261 42.3352H100.418L103.098 30.4545H108.882L111.635 42.2507H111.792L114.218 30.4545H120.147L115.305 49H108.99L106.093 38.1939H105.887L102.99 49H96.663Z" fill="url(#paint0_linear_37_2492)"/>
<defs>
<linearGradient id="paint0_linear_37_2492" x1="57.0535" y1="31.6667" x2="105.005" y2="60.6285" gradientUnits="userSpaceOnUse">
<stop stop-color="#FF0808"/>
<stop offset="1" stop-color="#FFD02B"/>
</linearGradient>
</defs>
</svg>
